<svg xmlns="http://www.w3.org/2000/svg" width="612" height="792"><path stroke="#fff" stroke-width="25" stroke-miterlimit="10" d="M86.242 562.79s57.451-99.089 58.451-203.089c0 0 29 245 53 334 0 0 35.508-192.193 106-299 29.951-45.381 67-70 111-54" fill="none"/><line stroke="#fff" stroke-width="25" stroke-miterlimit="10" x1="357.752" y1="527.473" x2="480.578" y2="185.05" fill="none"/><path stroke="#fff" stroke-width="25" stroke-miterlimit="10" d="M357.752 232.318c0 69.192-56.092 125.283-125.284 125.283s-125.284-56.09-125.284-125.283c0-22.942 6.167-44.443 16.932-62.938" fill="none"/><path stroke="#fff" stroke-width="25" stroke-miterlimit="10" d="M232.468 107.034" fill="none"/><path stroke="#fff" stroke-width="20" stroke-miterlimit="10" d="M66.049 149.281s192.862 84.623 300.117 82.655c0 0 24.248-90.644-21.648-137.758-40.92-42.007-88.788-56.598-154.486-36.407-70.061 21.531-53.346 82.689-84.623 77.735-28.301-4.484-29.519-9.841-39.36 13.775z" fill="none"/><circle fill="#fff" cx="153.763" cy="220.404" r="9"/><circle fill="#fff" cx="241.468" cy="241.317" r="9"/><path stroke="#fff" stroke-width="25" stroke-miterlimit="10" d="M446.285 99.889s-98.322 158.509-2.625 191.634c95.699 33.127 116.412-152.246 116.412-152.246" fill="none"/><circle fill="#fff" cx="86.242" cy="551.302" r="28.314"/><circle fill="#fff" cx="421.778" cy="342.995" r="28.313"/></svg>