<?xml version="1.0" encoding="utf-8"?>
<!-- Generator: Adobe Illustrator 16.0.0, SVG Export Plug-In . SVG Version: 6.00 Build 0)  -->
<!DOCTYPE svg PUBLIC "-//W3C//DTD SVG 1.1//EN" "http://www.w3.org/Graphics/SVG/1.1/DTD/svg11.dtd">
<svg version="1.1" id="White" xmlns="http://www.w3.org/2000/svg" xmlns:xlink="http://www.w3.org/1999/xlink" x="0px" y="0px"
	 width="612px" height="792px" viewBox="0 0 612 792" enable-background="new 0 0 612 792" xml:space="preserve">
<path fill="none" stroke="#FFFFFF" stroke-width="25" stroke-miterlimit="10" d="M86.242,562.79c0,0,57.451-99.089,58.451-203.089
	c0,0,29,245,53,334c0,0,35.508-192.193,106-299c29.951-45.381,67-70,111-54"/>
<line fill="none" stroke="#FFFFFF" stroke-width="25" stroke-miterlimit="10" x1="357.752" y1="527.473" x2="480.578" y2="185.05"/>
<path fill="none" stroke="#FFFFFF" stroke-width="25" stroke-miterlimit="10" d="M357.752,232.318
	c0,69.192-56.092,125.283-125.284,125.283s-125.284-56.09-125.284-125.283c0-22.942,6.167-44.443,16.932-62.938"/>
<path fill="none" stroke="#FFFFFF" stroke-width="25" stroke-miterlimit="10" d="M232.468,107.034"/>
<path fill="none" stroke="#FFFFFF" stroke-width="20" stroke-miterlimit="10" d="M66.049,149.281c0,0,192.862,84.623,300.117,82.655
	c0,0,24.248-90.644-21.648-137.758c-40.92-42.007-88.788-56.598-154.486-36.407c-70.061,21.531-53.346,82.689-84.623,77.735
	C77.108,131.022,75.89,125.665,66.049,149.281z"/>
<circle fill="#FFFFFF" cx="153.763" cy="220.404" r="9"/>
<circle fill="#FFFFFF" cx="241.468" cy="241.317" r="9"/>
<path fill="none" stroke="#FFFFFF" stroke-width="25" stroke-miterlimit="10" d="M446.285,99.889c0,0-98.322,158.509-2.625,191.634
	c95.699,33.127,116.412-152.246,116.412-152.246"/>
<circle fill="#FFFFFF" cx="86.242" cy="551.302" r="28.314"/>
<circle fill="#FFFFFF" cx="421.778" cy="342.995" r="28.313"/>
<g>
</g>
<g>
</g>
<g>
</g>
<g>
</g>
<g>
</g>
<g>
</g>
</svg>
